<?xml version="1.0" encoding="UTF-8"?>
<svg xmlns="http://www.w3.org/2000/svg" xmlns:xlink="http://www.w3.org/1999/xlink" width="500pt" height="500pt" viewBox="0 0 500 500" version="1.1">
<g id="surface1">
<path style=" stroke:none;fill-rule:nonzero;fill:#A0A0A0;fill-opacity:1;" d="M 247.859375 19.6875 C 244.800781 19.765625 241.96875 21.199219 240.109375 23.640625 L 161.636719 102.113281 C 159.039063 104.59375 157.992188 108.3125 158.925781 111.761719 C 159.816406 115.25 162.527344 117.960938 166.015625 118.855469 C 169.464844 119.785156 173.183594 118.738281 175.664063 116.140625 L 238.09375 53.710938 L 238.09375 267.855469 C 238.054688 271.421875 239.917969 274.753906 243.015625 276.578125 C 246.117188 278.359375 249.914063 278.359375 253.015625 276.578125 C 256.113281 274.753906 257.976563 271.421875 257.9375 267.855469 L 257.9375 53.710938 L 320.367188 116.140625 C 322.847656 118.738281 326.566406 119.785156 330.015625 118.855469 C 333.503906 117.960938 336.214844 115.25 337.109375 111.761719 C 338.039063 108.3125 336.992188 104.59375 334.394531 102.113281 L 255.882813 23.5625 C 253.945313 21.082031 251 19.648438 247.859375 19.6875 Z M 376.363281 61.886719 C 372.101563 62.042969 368.417969 64.910156 367.21875 69.019531 C 366.015625 73.125 367.605469 77.542969 371.09375 79.984375 C 422.789063 117.886719 456.347656 178.957031 456.347656 248.015625 C 456.347656 363.1875 363.1875 456.347656 248.015625 456.347656 C 132.84375 456.347656 39.683594 363.1875 39.683594 248.015625 C 39.683594 178.957031 73.242188 117.886719 124.9375 79.984375 C 128.386719 77.464844 129.898438 73.046875 128.660156 68.980469 C 127.378906 64.871094 123.660156 62.042969 119.359375 61.964844 C 117.148438 61.925781 114.941406 62.625 113.15625 63.980469 C 56.617188 105.484375 19.839844 172.527344 19.839844 248.015625 C 19.839844 373.921875 122.109375 476.191406 248.015625 476.191406 C 373.921875 476.191406 476.191406 373.921875 476.191406 248.015625 C 476.191406 172.527344 439.414063 105.484375 382.875 63.980469 C 381.015625 62.546875 378.726563 61.808594 376.363281 61.886719 Z "/>
</g>
</svg>
