<?xml version="1.0" encoding="UTF-8"?>
<svg xmlns="http://www.w3.org/2000/svg" xmlns:xlink="http://www.w3.org/1999/xlink" width="480pt" height="480pt" viewBox="0 0 480 480" version="1.1">
<g id="surface1">
<path style=" stroke:none;fill-rule:nonzero;fill:#A0A0A0;fill-opacity:1;" d="M 120 40 C 97.890625 40 80 57.890625 80 80 C 80 102.109375 97.890625 120 120 120 C 142.109375 120 160 102.109375 160 80 C 160 57.890625 142.109375 40 120 40 Z M 360 40 C 337.890625 40 320 57.890625 320 80 C 320 102.109375 337.890625 120 360 120 C 382.109375 120 400 102.109375 400 80 C 400 57.890625 382.109375 40 360 40 Z M 100 160 C 77.890625 160 60 177.890625 60 200 L 60 440 L 100 440 L 100 320 L 140 320 L 140 440 L 180 440 L 180 243.4375 L 240 303.4375 L 300 243.4375 L 300 440 L 340 440 L 340 320 L 380 320 L 380 440 L 420 440 L 420 200 C 420 177.890625 402.109375 160 380 160 L 340 160 C 328.90625 160 318.828125 164.53125 311.5625 171.875 L 240 243.4375 L 168.28125 171.71875 L 167.8125 171.171875 L 167.65625 171.25 C 160.46875 164.296875 150.78125 160 140 160 Z "/>
</g>
</svg>
