<?xml version="1.0" encoding="UTF-8"?>
<svg xmlns="http://www.w3.org/2000/svg" xmlns:xlink="http://www.w3.org/1999/xlink" width="480pt" height="480pt" viewBox="0 0 480 480" version="1.1">
<g id="surface1">
<path style=" stroke:none;fill-rule:nonzero;fill:#A0A0A0;fill-opacity:1;" d="M 328.125 0 L 288.125 191.875 L 480 151.875 C 460 77.890625 402.109375 20 328.125 0 Z M 220 41.875 C 100.078125 41.875 1.875 140.078125 1.875 260 C 1.875 379.921875 100.078125 478.125 220 478.125 C 339.921875 478.125 438.125 379.921875 438.125 260 C 438.125 240.625 436.015625 218.828125 428.75 199.375 L 423.75 185 L 408.125 188.125 L 261.25 218.75 L 291.875 71.875 L 295 56.25 L 280.625 51.25 C 261.171875 43.984375 239.375 41.875 220 41.875 Z M 220 78.125 C 231.40625 78.125 241.875 81.015625 252.5 83.125 L 220 238.125 L 214.375 265.625 L 241.875 260 L 396.875 227.5 C 398.984375 238.125 401.875 248.59375 401.875 260 C 401.875 360.078125 320.078125 441.875 220 441.875 C 119.921875 441.875 38.125 360.078125 38.125 260 C 38.125 159.921875 119.921875 78.125 220 78.125 Z "/>
</g>
</svg>
