<?xml version="1.0" encoding="UTF-8"?>
<svg xmlns="http://www.w3.org/2000/svg" xmlns:xlink="http://www.w3.org/1999/xlink" width="96pt" height="96pt" viewBox="0 0 96 96" version="1.1">
<g id="surface1">
<path style=" stroke:none;fill-rule:nonzero;fill:#A0A0A0;fill-opacity:1;" d="M 76.6875 8 C 73.796875 8 70.890625 9.109375 68.6875 11.3125 L 64 16 L 80 32 L 84.6875 27.3125 C 89.109375 22.890625 89.109375 15.734375 84.6875 11.3125 C 82.484375 9.109375 79.578125 8 76.6875 8 Z M 58 22 L 20 60 C 20 60 24.015625 60.015625 26 62 C 27.984375 63.984375 27.9375 67.9375 27.9375 67.9375 C 27.9375 67.9375 32.015625 68.015625 34 70 C 35.984375 71.984375 36 76 36 76 L 74 38 Z M 14.6875 68 L 12.0625 82.015625 C 11.84375 83.15625 12.84375 84.15625 13.984375 83.9375 L 28 81.3125 Z "/>
</g>
</svg>
