<?xml version="1.0" encoding="utf-8"?>
<!-- Generator: Adobe Illustrator 24.0.0, SVG Export Plug-In . SVG Version: 6.00 Build 0)  -->
<svg version="1.1" id="Layer_1" xmlns="http://www.w3.org/2000/svg" xmlns:xlink="http://www.w3.org/1999/xlink" x="0px" y="0px"
	 viewBox="0 0 1139.6 341.1" style="enable-background:new 0 0 1139.6 341.1;" xml:space="preserve">
<style type="text/css">
	.st0{fill:url(#SVGID_1_);}
	.st1{fill:url(#SVGID_2_);}
	.st2{fill:url(#SVGID_3_);}
	.st3{fill:url(#SVGID_4_);}
	.st4{fill:url(#SVGID_5_);}
	.st5{fill:#FFFFFF;}
	.st6{fill:#6CB53E;}
	.st7{fill:#116EB5;}
</style>
<g>
	<g>
		<g>
			
				<linearGradient id="SVGID_1_" gradientUnits="userSpaceOnUse" x1="53" y1="178.6555" x2="53" y2="-12.2922" gradientTransform="matrix(1 0 0 1 0 132.7243)">
				<stop  offset="0.4699" style="stop-color:#0C8DC3"/>
				<stop  offset="0.8324" style="stop-color:#20526C"/>
			</linearGradient>
			<path class="st0" d="M53,336.1L53,336.1c-26.3,0-48-21.1-48-48V137.3c0-22.8,21.7-41.7,41.7-41.7H53c26.3,0,48,21.1,48,48v145.1
				C101,314.4,79.2,336.1,53,336.1z"/>
			
				<linearGradient id="SVGID_2_" gradientUnits="userSpaceOnUse" x1="54.7" y1="-64.9467" x2="54.7" y2="-117.8244" gradientTransform="matrix(1 0 0 1 0 132.7243)">
				<stop  offset="0.4596" style="stop-color:#0C8DC3"/>
				<stop  offset="1" style="stop-color:#20526C"/>
			</linearGradient>
			<circle class="st1" cx="54.7" cy="41.9" r="36"/>
		</g>
		<g>
			
				<linearGradient id="SVGID_3_" gradientUnits="userSpaceOnUse" x1="1294.2491" y1="178.6555" x2="1294.2491" y2="-12.2922" gradientTransform="matrix(-1 0 0 1 1536.8491 132.7243)">
				<stop  offset="0.4699" style="stop-color:#0C8DC3"/>
				<stop  offset="0.8324" style="stop-color:#20526C"/>
			</linearGradient>
			<path class="st2" d="M242.6,336.1L242.6,336.1c26.3,0,48-21.1,48-48V137.3c0-22.8-21.7-41.7-41.7-41.7h-6.3
				c-26.3,0-48,21.1-48,48v145.1C194.6,314.4,215.8,336.1,242.6,336.1z"/>
			
				<linearGradient id="SVGID_4_" gradientUnits="userSpaceOnUse" x1="1295.9492" y1="-64.9467" x2="1295.9492" y2="-117.8244" gradientTransform="matrix(-1 0 0 1 1536.8491 132.7243)">
				<stop  offset="0.4596" style="stop-color:#0C8DC3"/>
				<stop  offset="1" style="stop-color:#20526C"/>
			</linearGradient>
			<circle class="st3" cx="240.9" cy="41.9" r="36"/>
		</g>
		
			<linearGradient id="SVGID_5_" gradientUnits="userSpaceOnUse" x1="147.5" y1="3.5306" x2="147.5" y2="106.1825" gradientTransform="matrix(1 0 0 1 0 132.7243)">
			<stop  offset="0" style="stop-color:#0C8DC3"/>
			<stop  offset="0.7924" style="stop-color:#20526C"/>
		</linearGradient>
		<path class="st4" d="M238,93.9c-52.5,0-90.8,62.8-90.8,62.8s-37.7-62.8-90.8-62.8c-44,0-50.8,34.3-50.8,34.3
			c60-14.8,137.1,105.7,142.2,119.4l0,0l0,0l0,0l0,0c4.6-13.7,82.2-134.2,141.6-119.4C288.9,128.2,282.6,93.9,238,93.9z"/>
	</g>
	<g>
		<g>
			<g>
				<path class="st5" d="M524.2,92.2L524.2,92.2c-14.3-2.3-28.6,6.9-33.1,20.6l-28,94.2l-28-94.2C430.5,99.1,416.8,90,402,92.2l0,0
					c-14.3,2.3-25.1,10.3-25.1,25.1v139.4H410l1.1-117.1l35.4,105.1c2.3,7.4,9.1,12,16.6,12c7.4-0.6,14.3-5.1,16.6-12L515,139.6
					l1.7,117.1h33.1V117.3C549.3,102.5,539,94.5,524.2,92.2z"/>
				<path class="st5" d="M674.4,91.1V203c0,13.7-10.9,24.6-24.6,24.6H639c-13.7,0-24.6-10.9-24.6-24.6V91.1h-37.7v110.8
					c0,30.3,24.6,54.8,54.8,54.8h24.6c30.3,0,54.8-24.6,54.8-54.8V91.1H674.4z"/>
				<path class="st5" d="M802.9,91.6h-44.5c-11.4,0-20.6,9.1-20.6,20.6v123.9c0,11.4,9.1,20.6,20.6,20.6h44.5
					c41.7,0,75.4-33.7,75.4-75.4v-14.8C878.3,125.3,844.6,91.6,802.9,91.6z M840,189.3c0,22.8-18.3,41.1-41.1,41.1h-24.6V119.6h24.6
					c22.8,0,41.1,18.3,41.1,41.1V189.3z"/>
				<path class="st5" d="M936.5,229.3v-44.5h70.3V158h-70.3v-39.4h81.1V91.1H917.1c-9.7,0-17.7,8-17.7,17.7v130.8
					c0,9.7,8,17.7,17.7,17.7h100.5v-27.4h-81.1V229.3z"/>
				<rect x="1038.8" y="134.5" class="st5" width="30.8" height="122.2"/>
				<rect x="1095.3" y="134.5" class="st5" width="30.8" height="122.2"/>
			</g>
		</g>
		<circle class="st6" cx="1054.2" cy="104.2" r="18.8"/>
		<circle class="st7" cx="1110.7" cy="104.2" r="18.8"/>
	</g>
</g>
</svg>
